<?xml version="1.0" encoding="UTF-8"?>
<svg xmlns="http://www.w3.org/2000/svg" width="1200" height="675" viewBox="0 0 1200 675">
  <defs>
    <linearGradient id="bg" x1="0" y1="0" x2="1" y2="1">
      <stop offset="0" stop-color="#0f172a"/>
      <stop offset="1" stop-color="#064e3b"/>
    </linearGradient>
    <linearGradient id="card" x1="0" y1="0" x2="0" y2="1">
      <stop offset="0" stop-color="#ffffff"/>
      <stop offset="1" stop-color="#ecfdf5"/>
    </linearGradient>
  </defs>
  <rect width="1200" height="675" fill="url(#bg)"/>
  <circle cx="980" cy="90" r="160" fill="#10b981" opacity="0.18"/>
  <circle cx="160" cy="560" r="200" fill="#34d399" opacity="0.12"/>
  <rect x="70" y="150" width="420" height="380" rx="28" fill="url(#card)"/>
  <rect x="100" y="190" width="280" height="22" rx="11" fill="#cbd5e1"/>
  <rect x="100" y="230" width="180" height="14" rx="7" fill="#e2e8f0"/>
  <rect x="100" y="270" width="360" height="48" rx="12" fill="#f1f5f9"/>
  <circle cx="128" cy="294" r="10" fill="#10b981"/>
  <rect x="148" y="286" width="220" height="16" rx="8" fill="#94a3b8"/>
  <rect x="100" y="338" width="360" height="48" rx="12" fill="#f1f5f9"/>
  <circle cx="128" cy="362" r="10" fill="#64748b"/>
  <rect x="148" y="354" width="180" height="16" rx="8" fill="#94a3b8"/>
  <rect x="100" y="406" width="200" height="36" rx="10" fill="#0f172a"/>
  <text x="200" y="430" text-anchor="middle" font-family="Inter,system-ui,sans-serif" font-size="16" fill="#ecfdf5">Search</text>
  <path d="M530 337 L650 337" stroke="#6ee7b7" stroke-width="10" stroke-linecap="round"/>
  <path d="M630 312 L670 337 L630 362" fill="none" stroke="#6ee7b7" stroke-width="10" stroke-linecap="round" stroke-linejoin="round"/>
  <rect x="700" y="130" width="430" height="420" rx="28" fill="#10b981"/>
  <text x="915" y="200" text-anchor="middle" font-family="Inter,system-ui,sans-serif" font-size="28" font-weight="700" fill="#042f2e">AI Max</text>
  <text x="915" y="236" text-anchor="middle" font-family="Inter,system-ui,sans-serif" font-size="16" fill="#064e3b">in-place conversion · Sep 2026</text>
  <rect x="740" y="270" width="350" height="54" rx="14" fill="#042f2e"/>
  <text x="915" y="304" text-anchor="middle" font-family="Inter,system-ui,sans-serif" font-size="18" fill="#d1fae5">search term matching ON</text>
  <rect x="740" y="340" width="350" height="54" rx="14" fill="#065f46"/>
  <text x="915" y="374" text-anchor="middle" font-family="Inter,system-ui,sans-serif" font-size="18" fill="#ecfdf5">text customisation by cohort</text>
  <rect x="740" y="410" width="350" height="54" rx="14" fill="#065f46"/>
  <text x="915" y="444" text-anchor="middle" font-family="Inter,system-ui,sans-serif" font-size="18" fill="#ecfdf5">final URL expansion OFF</text>
</svg>
