<svg xmlns="http://www.w3.org/2000/svg" viewBox="0 0 800 500" width="800" height="500" role="img" aria-label="analytics category graphic">
  <defs>
    <linearGradient id="bg" x1="0" y1="0" x2="1" y2="1">
      <stop offset="0" stop-color="#C084FC"/>
      <stop offset="1" stop-color="#7E22CE"/>
    </linearGradient>
  </defs>
  <rect width="800" height="500" fill="url(#bg)"/>
  <g opacity="0.10" fill="#fff">
    <circle cx="60" cy="60" r="2.5"/><circle cx="120" cy="60" r="2.5"/><circle cx="180" cy="60" r="2.5"/>
    <circle cx="60" cy="120" r="2.5"/><circle cx="120" cy="120" r="2.5"/>
  </g>
  <g stroke="#fff" fill="none" opacity="0.18" stroke-width="2.5">
    <circle cx="650" cy="120" r="155"/>
    <circle cx="650" cy="120" r="100"/>
  </g>
  <circle cx="650" cy="-35" r="9" fill="#fff" opacity="0.5"/>
  <g transform="translate(150,110) scale(0.9)" stroke="#fff" fill="none" stroke-width="16" stroke-linecap="round" stroke-linejoin="round" opacity="0.95">
    <line x1="150" y1="338" x2="380" y2="338" stroke-width="10" /><rect x="170" y="278" width="42" height="60" rx="6" /><rect x="238" y="232" width="42" height="106" rx="6" /><rect x="306" y="190" width="42" height="148" rx="6" /><polyline points="191,260 259,214 327,170" stroke-width="10" /><circle cx="327" cy="170" r="10" fill="#fff" stroke="none" />
  </g>
  <path d="M690 430 L699 462 L731 471 L699 480 L690 512 L681 480 L649 471 L681 462 Z" fill="#fff" opacity="0.5"/>
</svg>
