<svg xmlns="http://www.w3.org/2000/svg" viewBox="0 0 800 500" width="800" height="500" role="img" aria-label="email category graphic">
  <defs>
    <linearGradient id="bg" x1="0" y1="0" x2="1" y2="1">
      <stop offset="0" stop-color="#2DD4BF"/>
      <stop offset="1" stop-color="#0F766E"/>
    </linearGradient>
  </defs>
  <rect width="800" height="500" fill="url(#bg)"/>
  <g opacity="0.10" fill="#fff">
    <circle cx="60" cy="60" r="2.5"/><circle cx="120" cy="60" r="2.5"/><circle cx="180" cy="60" r="2.5"/>
    <circle cx="60" cy="120" r="2.5"/><circle cx="120" cy="120" r="2.5"/>
  </g>
  <g stroke="#fff" fill="none" opacity="0.18" stroke-width="2.5">
    <circle cx="650" cy="120" r="155"/>
    <circle cx="650" cy="120" r="100"/>
  </g>
  <circle cx="650" cy="-35" r="9" fill="#fff" opacity="0.5"/>
  <g transform="translate(150,110) scale(0.9)" stroke="#fff" fill="none" stroke-width="16" stroke-linecap="round" stroke-linejoin="round" opacity="0.95">
    <rect x="150" y="178" width="220" height="158" rx="14" /><path d="M150 198 L260 280 L370 198" />
  </g>
  <path d="M690 430 L699 462 L731 471 L699 480 L690 512 L681 480 L649 471 L681 462 Z" fill="#fff" opacity="0.5"/>
</svg>
