<svg xmlns="http://www.w3.org/2000/svg" viewBox="0 0 800 500" width="800" height="500" role="img" aria-label="sem category graphic">
  <defs>
    <linearGradient id="bg" x1="0" y1="0" x2="1" y2="1">
      <stop offset="0" stop-color="#38BDF8"/>
      <stop offset="1" stop-color="#1D4ED8"/>
    </linearGradient>
  </defs>
  <rect width="800" height="500" fill="url(#bg)"/>
  <g opacity="0.10" fill="#fff">
    <circle cx="60" cy="60" r="2.5"/><circle cx="120" cy="60" r="2.5"/><circle cx="180" cy="60" r="2.5"/>
    <circle cx="60" cy="120" r="2.5"/><circle cx="120" cy="120" r="2.5"/>
  </g>
  <g stroke="#fff" fill="none" opacity="0.18" stroke-width="2.5">
    <circle cx="650" cy="120" r="155"/>
    <circle cx="650" cy="120" r="100"/>
  </g>
  <circle cx="650" cy="-35" r="9" fill="#fff" opacity="0.5"/>
  <g transform="translate(150,110) scale(0.9)" stroke="#fff" fill="none" stroke-width="16" stroke-linecap="round" stroke-linejoin="round" opacity="0.95">
    <circle cx="245" cy="240" r="86" /><circle cx="245" cy="240" r="50" /><circle cx="245" cy="240" r="14" fill="#fff" stroke="none" /><path d="M300 300 L360 322 L332 332 L344 372 L322 380 L312 340 L292 360 Z" fill="#fff" stroke="none" />
  </g>
  <path d="M690 430 L699 462 L731 471 L699 480 L690 512 L681 480 L649 471 L681 462 Z" fill="#fff" opacity="0.5"/>
</svg>
