<svg xmlns="http://www.w3.org/2000/svg" viewBox="0 0 800 500" width="800" height="500" role="img" aria-label="seo category graphic">
  <defs>
    <linearGradient id="bg" x1="0" y1="0" x2="1" y2="1">
      <stop offset="0" stop-color="#34D399"/>
      <stop offset="1" stop-color="#047857"/>
    </linearGradient>
  </defs>
  <rect width="800" height="500" fill="url(#bg)"/>
  <g opacity="0.10" fill="#fff">
    <circle cx="60" cy="60" r="2.5"/><circle cx="120" cy="60" r="2.5"/><circle cx="180" cy="60" r="2.5"/>
    <circle cx="60" cy="120" r="2.5"/><circle cx="120" cy="120" r="2.5"/>
  </g>
  <g stroke="#fff" fill="none" opacity="0.18" stroke-width="2.5">
    <circle cx="650" cy="120" r="155"/>
    <circle cx="650" cy="120" r="100"/>
  </g>
  <circle cx="650" cy="-35" r="9" fill="#fff" opacity="0.5"/>
  <g transform="translate(150,110) scale(0.9)" stroke="#fff" fill="none" stroke-width="16" stroke-linecap="round" stroke-linejoin="round" opacity="0.95">
    <circle cx="235" cy="235" r="78" /><line x1="292" y1="292" x2="350" y2="350" stroke-width="22" /><path d="M205 235 h60 M235 205 v60" stroke-width="12" />
  </g>
  <path d="M690 430 L699 462 L731 471 L699 480 L690 512 L681 480 L649 471 L681 462 Z" fill="#fff" opacity="0.5"/>
</svg>
